# Created by MKDS Course Modifier
mtllib Basic Tree 1.mtl
g polygon0
usemtl Material4360
v 2.25 0.07495117 0
v 1.125977 0.07495117 -2
v 0 0.07495117 0
v -1.125977 0.07495117 -2
v -2.25 0.07495117 0
vn 0 0.9980469 0
vn 0 0.9980469 0
vn 0 0.9980469 0
vn 0 0.9980469 0
vn 0 0.9980469 0
vt 0.5 0.9492188
vt 0.5 0.9492188
vt 0.5 -0.7734375
vt 0.5 0.9492188
vt 0.5 0.9492188
f 1/1/1 2/2/2 3/3/3
f 2/2/2 4/4/4 3/3/3
f 3/3/3 4/4/4 5/5/5
v -2.25 0.07495117 0
v -1.125977 0.07495117 2
v 0 0.07495117 0
v 1.125977 0.07495117 2
v 2.25 0.07495117 0
vn 0 0.9980469 0
vn 0 0.9980469 0
vn 0 0.9980469 0
vn 0 0.9980469 0
vn 0 0.9980469 0
vt 0.5 0.9492188
vt 0.5 0.9492188
vt 0.5 -0.7734375
vt 0.5 0.9492188
vt 0.5 0.9492188
f 6/6/6 7/7/7 8/8/8
f 7/7/7 9/9/9 8/8/8
f 8/8/8 9/9/9 10/10/10
g polygon1
usemtl Material4361
v 0.7736816 0.25 -1.340332
v 1.547607 0.25 0
v 0.8527832 0 -1.5
v 1.699951 0 0
vn 0.7441406 0.5097656 -0.4296875
vn 0.7578125 0.4902344 -0.4316406
vn 0.7578125 0.4902344 -0.4316406
vn 0.7695313 0.46875 -0.4335938
vt 0.02734375 -0.7988281
vt 0.8886719 -0.7988281
vt -0.01757813 -0.9882813
vt 0.9355469 -0.9882813
f 11/11/11 12/12/12 13/13/13
f 12/12/12 14/14/14 13/13/13
v -1.547607 0.25 0
v -0.7736816 0.25 -1.340332
v -1.699951 0 0
v -0.8527832 0 -1.5
vn -0.765625 0.4667969 -0.4414063
vn -0.7578125 0.4882813 -0.4335938
vn -0.7578125 0.4882813 -0.4335938
vn -0.75 0.5078125 -0.4238281
vt 0.02734375 -0.7988281
vt 0.8886719 -0.7988281
vt -0.01757813 -0.9882813
vt 0.9355469 -0.9882813
f 15/15/15 16/16/16 17/17/17
f 16/16/16 18/18/18 17/17/17
v 1.547607 0.25 0
v 0.7736816 0.25 1.340332
v 1.699951 0 0
v 0.8527832 0 1.5
vn 0.765625 0.4667969 0.4414063
vn 0.7578125 0.4882813 0.4335938
vn 0.7578125 0.4882813 0.4335938
vn 0.75 0.5078125 0.4238281
vt 0.02734375 -0.7988281
vt 0.8886719 -0.7988281
vt -0.01757813 -0.9882813
vt 0.9355469 -0.9882813
f 19/19/19 20/20/20 21/21/21
f 20/20/20 22/22/22 21/21/21
v -0.7736816 0.25 1.340332
v -1.547607 0.25 0
v -0.8527832 0 1.5
v -1.699951 0 0
vn -0.7441406 0.5097656 0.4296875
vn -0.7578125 0.4902344 0.4316406
vn -0.7578125 0.4902344 0.4316406
vn -0.7695313 0.46875 0.4335938
vt 0.02734375 -0.7988281
vt 0.8886719 -0.7988281
vt -0.01757813 -0.9882813
vt 0.9355469 -0.9882813
f 23/23/23 24/24/24 25/25/25
f 24/24/24 26/26/26 25/25/25
v 0.7736816 0.25 1.340332
v -0.7736816 0.25 1.340332
v 0.8527832 0 1.5
v -0.8527832 0 1.5
vn 0 0.5390625 0.8417969
vn 0 0.5390625 0.8417969
vn 0 0.5390625 0.8417969
vn 0 0.5390625 0.8417969
vt 0.02734375 -0.7988281
vt 0.8886719 -0.7988281
vt -0.01757813 -0.9882813
vt 0.9355469 -0.9882813
f 27/27/27 28/28/28 29/29/29
f 28/28/28 30/30/30 29/29/29
v -0.7736816 0.25 -1.340332
v 0 0.25 0
v 0.7736816 0.25 -1.340332
v 0 0.25 0
v 1.547607 0.25 0
v 0.7736816 0.25 -1.340332
v 0.7736816 0.25 1.340332
v 1.547607 0.25 0
v 0 0.25 0
v -0.7736816 0.25 1.340332
v 0.7736816 0.25 1.340332
v 0 0.25 0
v -1.547607 0.25 0
v -0.7736816 0.25 1.340332
v 0 0.25 0
v -1.547607 0.25 0
v 0 0.25 0
v -0.7736816 0.25 -1.340332
vn 0 0.9980469 0
vn 0 0.9980469 0
vn 0 0.9980469 0
vn 0 0.9980469 0
vn 0 0.9980469 0
vn 0 0.9980469 0
vn 0 0.9980469 0
vn 0 0.9980469 0
vn 0 0.9980469 0
vn 0 0.9980469 0
vn 0 0.9980469 0
vn 0 0.9980469 0
vn 0 0.9980469 0
vn 0 0.9980469 0
vn 0 0.9980469 0
vn 0 0.9980469 0
vn 0 0.9980469 0
vn 0 0.9980469 0
vt 0.8886719 -0.7988281
vt 0.4707031 -0.009765625
vt 0.02734375 -0.7988281
vt 0.4707031 -0.009765625
vt 0.02734375 -0.7988281
vt 0.8886719 -0.7988281
vt 0.02734375 -0.7988281
vt 0.8886719 -0.7988281
vt 0.4707031 -0.009765625
vt 0.02734375 -0.7988281
vt 0.8886719 -0.7988281
vt 0.4707031 -0.009765625
vt 0.02734375 -0.7988281
vt 0.8886719 -0.7988281
vt 0.4707031 -0.009765625
vt 0.8886719 -0.7988281
vt 0.4707031 -0.009765625
vt 0.02734375 -0.7988281
f 31/31/31 32/32/32 33/33/33
f 34/34/34 35/35/35 36/36/36
f 37/37/37 38/38/38 39/39/39
f 40/40/40 41/41/41 42/42/42
f 43/43/43 44/44/44 45/45/45
f 46/46/46 47/47/47 48/48/48
g polygon2
usemtl Material4334
v -0.6337891 0.277832 0.005126953
v -0.3137207 0.277832 0.2192383
v -0.2836914 0.9284668 0.03613281
v -0.1279297 0.277832 0.6379395
v 0.02075195 0.9130859 0.2937012
v 0.4326172 0.9284668 -0.009033203
vn -0.5390625 0.2519531 0.8046875
vn -0.75 0.2109375 0.6269531
vn -0.7167969 0.1171875 0.6875
vn -0.0234375 0.2949219 0.9550781
vn -0.03125 0.328125 0.9433594
vn 0.6386719 0.2109375 0.7402344
vt 1 -0.9921875
vt 0.46875 -0.9921875
vt 1 -0.5488281
vt 0.0078125 -0.9921875
vt 0.0078125 -0.5429688
vt 1 -0.5488281
f 49/49/49 50/50/50 51/51/51
f 50/50/50 52/52/52 51/51/51
f 51/51/51 52/52/52 53/53/53
f 52/52/52 54/54/54 53/53/53
v -0.3588867 2.140137 -0.002929688
v -0.7233887 2.342285 -0.002929688
v -0.4206543 2.051514 0.09326172
v -0.779541 2.29541 0.09326172
v -0.5026855 1.933594 -0.002929688
v -0.8537598 2.233398 -0.002929688
vn 0.3242188 0.5839844 0.7460938
vn 0.4746094 0.5878906 0.6542969
vn 0.1972656 0.3359375 0.9199219
vn 0.1289063 0.07226563 0.9882813
vn -0.3886719 -0.5039063 0.7714844
vn -0.6269531 -0.4492188 0.6367188
vt 0.515625 -0.8398438
vt 0.515625 -0.5078125
vt 0.0234375 -0.8398438
vt 0.0234375 -0.5078125
vt 0.515625 -0.8398438
vt 0.515625 -0.5078125
f 55/55/55 56/56/56 57/57/57
f 56/56/56 58/58/58 57/57/57
f 57/57/57 58/58/58 59/59/59
f 58/58/58 60/60/60 59/59/59
v -0.1972656 1.758545 -0.05712891
v 0.1115723 2.035156 0.09057617
v -0.291748 1.898193 0.05908203
v 0.02587891 2.108643 0.2067871
v -0.362793 2.003418 -0.05712891
v -0.03857422 2.163818 0.09057617
vn 0.1328125 -0.578125 0.8046875
vn 0.3378906 -0.5839844 0.7382813
vn -0.1054688 -0.4003906 0.9101563
vn -0.06445313 -0.04882813 0.9960938
vn -0.5761719 0.4902344 0.6542969
vn -0.65625 0.5527344 0.5136719
vt 0.6445313 -0.8496094
vt 0.6445313 -0.5234375
vt 0.01171875 -0.8496094
vt 0.01171875 -0.5234375
vt 0.6445313 -0.8496094
vt 0.6445313 -0.5234375
f 61/61/61 62/62/62 63/63/63
f 62/62/62 64/64/64 63/63/63
f 63/63/63 64/64/64 65/65/65
f 64/64/64 66/66/66 65/65/65
v 0.02075195 0.9130859 0.2937012
v 0.4326172 0.9284668 -0.009033203
v -0.3796387 1.709717 0.1359863
v -0.1154785 1.709717 -0.1049805
v -0.2763672 2.716064 0.1347656
vn -0.03125 0.328125 0.9433594
vn 0.6386719 0.2109375 0.7402344
vn 0.09375 0.0703125 0.9941406
vn 0.6582031 0.2207031 0.7207031
vn 0.7519531 -0.07617188 0.65625
vt 0.01171875 -0.546875
vt 0.9882813 -0.546875
vt 0.01171875 -0.1347656
vt 0.9882813 -0.1347656
vt 0.9882813 -0.9746094
f 67/67/67 68/68/68 69/69/69
f 68/68/68 70/70/70 69/69/69
f 69/69/69 70/70/70 71/71/71
v 0.02075195 0.9130859 0.2937012
v -0.3796387 1.709717 0.1359863
v -0.2836914 0.9284668 0.03613281
v -0.5786133 1.709717 -0.1049805
vn -0.03125 0.328125 0.9433594
vn 0.09375 0.0703125 0.9941406
vn -0.7167969 0.1171875 0.6875
vn -0.8105469 -0.08007813 0.578125
vt 0.01171875 -0.5507813
vt 0.01171875 -0.1425781
vt 0.9882813 -0.5507813
vt 0.9882813 -0.1425781
f 72/72/72 73/73/73 74/74/74
f 73/73/73 75/75/75 74/74/74
v 0.5024414 0.277832 -0.0402832
v 0.4326172 0.9284668 -0.009033203
v 0.1550293 0.277832 0.1787109
v -0.1279297 0.277832 0.6379395
vn 0.5332031 0.01757813 0.8457031
vn 0.6386719 0.2109375 0.7402344
vn 0.7050781 -0.09765625 0.7011719
vn -0.0234375 0.2949219 0.9550781
vt 1 -0.9921875
vt 1 -0.5488281
vt 0.46875 -0.9921875
vt 0.0078125 -0.9921875
f 76/76/76 77/77/77 78/78/78
f 77/77/77 79/79/79 78/78/78
v -0.4387207 2.716064 0.1347656
v -0.5786133 1.709717 -0.1049805
v -0.3688965 2.716064 0.269043
v -0.3796387 1.709717 0.1359863
vn -0.8867188 0.01367188 0.4609375
vn -0.8105469 -0.08007813 0.578125
vn -0.8339844 -0.03125 0.5507813
vn 0.09375 0.0703125 0.9941406
vt 0.9882813 -0.9707031
vt 0.9882813 -0.1425781
vt 0.01171875 -0.9707031
vt 0.01171875 -0.1425781
f 80/80/80 81/81/81 82/82/82
f 81/81/81 83/83/83 82/82/82
v -1.047119 2.617432 -0.002929688
v -0.8537598 2.233398 -0.002929688
v -1.003174 2.641602 0.09326172
v -0.779541 2.29541 0.09326172
vn -0.7910156 -0.3984375 0.4628906
vn -0.6269531 -0.4492188 0.6367188
vn -0.7011719 -0.3964844 0.5917969
vn 0.1289063 0.07226563 0.9882813
vt 0.515625 -0.1816406
vt 0.515625 -0.5078125
vt 0.0234375 -0.1816406
vt 0.0234375 -0.5078125
f 84/84/84 85/85/85 86/86/86
f 85/85/85 87/87/87 86/86/86
v -1.003174 2.641602 0.09326172
v -0.779541 2.29541 0.09326172
v -0.9699707 2.659668 -0.002929688
v -0.7233887 2.342285 -0.002929688
vn 0.78125 0.5058594 0.3652344
vn 0.1289063 0.07226563 0.9882813
vn 0.7128906 0.5019531 0.4902344
vn 0.4746094 0.5878906 0.6542969
vt 0.0234375 -0.1816406
vt 0.0234375 -0.5078125
vt 0.515625 -0.1816406
vt 0.515625 -0.5078125
f 88/88/88 89/89/89 90/90/90
f 89/89/89 91/91/91 90/90/90
v 0.3210449 2.5354 0.2067871
v 0.02587891 2.108643 0.2067871
v 0.3718262 2.506836 0.09057617
v 0.1115723 2.035156 0.09057617
vn 0.7363281 -0.5078125 0.4472656
vn -0.06445313 -0.04882813 0.9960938
vn 0.6933594 -0.4335938 0.5742188
vn 0.3378906 -0.5839844 0.7382813
vt 0.01171875 -0.2128906
vt 0.01171875 -0.5234375
vt 0.6445313 -0.2128906
vt 0.6445313 -0.5234375
f 92/92/92 93/93/93 94/94/94
f 93/93/93 95/95/95 94/94/94
v 0.2827148 2.556885 0.09057617
v -0.03857422 2.163818 0.09057617
v 0.3210449 2.5354 0.2067871
v 0.02587891 2.108643 0.2067871
vn -0.7246094 0.59375 0.3496094
vn -0.65625 0.5527344 0.5136719
vn -0.703125 0.53125 0.4726563
vn -0.06445313 -0.04882813 0.9960938
vt 0.6445313 -0.2128906
vt 0.6445313 -0.5234375
vt 0.01171875 -0.2128906
vt 0.01171875 -0.5234375
f 96/96/96 97/97/97 98/98/98
f 97/97/97 99/99/99 98/98/98
v -0.3796387 1.709717 0.1359863
v -0.2763672 2.716064 0.1347656
v -0.3688965 2.716064 0.269043
vn 0.09375 0.0703125 0.9941406
vn 0.7519531 -0.07617188 0.65625
vn 0.8203125 -0.08398438 0.5664063
vt 0.01171875 -0.1347656
vt 0.9882813 -0.9746094
vt 0.01171875 -0.9746094
f 100/100/100 101/101/101 102/102/102
g polygon3
usemtl Material4320
v -0.8974609 2.498535 0.5554199
v -0.5986328 3.132568 1.334717
v -1.648438 2.980469 0.8305664
v -0.5500488 3.743408 1.831055
v -1.972656 3.795654 0.6706543
v -0.657959 4.491699 1.470459
v -1.770996 4.653076 0.7927246
v -0.8522949 4.902588 0.6196289
v -1.017578 4.569824 -0.177002
v -0.1408691 4.385986 0.04272461
vn -0.1660156 -0.8925781 0.4179688
vn 0.2421875 -0.6816406 0.6914063
vn -0.6230469 -0.6367188 0.453125
vn -0.02148438 -0.1542969 0.9882813
vn -0.953125 -0.04492188 0.3007813
vn 0.2089844 0.6699219 0.7128906
vn -0.6972656 0.7167969 0.01757813
vn 0.1484375 0.9882813 -0.02539063
vn -0.4335938 0.8867188 -0.15625
vn -0.04101563 0.9589844 0.2792969
vt -1.804688 -2.140625
vt -1.296875 -2.203125
vt -1.863281 -1.041016
vt -0.9570313 -1.759766
vt -1.279297 -0.5390625
vt -0.3378906 -1.140625
vt -0.6875 -0.2089844
vt -0.06835938 -0.4570313
vt 0.1757813 0.1445313
vt 0.5253906 -0.4609375
f 103/103/103 104/104/104 105/105/105
f 104/104/104 106/106/106 105/105/105
f 105/105/105 106/106/106 107/107/107
f 106/106/106 108/108/108 107/107/107
f 107/107/107 108/108/108 109/109/109
f 108/108/108 110/110/110 109/109/109
f 109/109/109 110/110/110 111/111/111
f 110/110/110 112/112/112 111/111/111
v 1.604004 3.662109 -0.1074219
v 0.6940918 3.955811 -0.7541504
v 1.126465 4.677002 0.1411133
v 0.4755859 4.71582 -0.4914551
v 0.5163574 4.967773 0.359375
v -0.1408691 4.385986 0.04272461
v 0.8601074 4.605713 1.169922
v 0.1010742 3.749268 0.9746094
vn 0.953125 0.2988281 0.0625
vn 0.5859375 0.5097656 -0.6308594
vn 0.6796875 0.6835938 -0.2617188
vn 0.02148438 0.859375 -0.5117188
vn -0.15625 0.984375 0.0703125
vn -0.04101563 0.9589844 0.2792969
vn 0.08789063 0.7519531 0.6542969
vn 0.1269531 0.1855469 0.9746094
vt 1.535156 -0.2421875
vt 0.5214844 0.1191406
vt 0.90625 -0.5019531
vt 0.3515625 -0.06640625
vt 0.375 -0.6621094
vt -0.1289063 -0.4394531
vt 0.6289063 -1.400391
vt -0.08984375 -1.605469
f 113/113/113 114/114/114 115/115/115
f 114/114/114 116/116/116 115/115/115
f 115/115/115 116/116/116 117/117/117
f 116/116/116 118/118/118 117/117/117
f 117/117/117 118/118/118 119/119/119
f 118/118/118 120/120/120 119/119/119
v -1.518311 3.720459 -0.407959
v -1.017578 4.569824 -0.177002
v -1.226074 4.282227 -1.097412
v -0.4145508 4.998291 -0.8405762
v 0.1940918 4.489258 -1.087158
v 0.1716309 4.578125 -0.5874023
v 0.6940918 3.955811 -0.7541504
vn -0.8945313 0.2851563 -0.3417969
vn -0.4335938 0.8867188 -0.15625
vn -0.6308594 0.6679688 -0.3945313
vn 0.09570313 0.9941406 -0.03515625
vn 0.5234375 0.7265625 -0.4453125
vn 0.3789063 0.9121094 -0.1601563
vn 0.5859375 0.5097656 -0.6308594
vt -0.1171875 0.6621094
vt 0.1621094 0.1308594
vt 0.5722656 1.191406
vt 0.7792969 0.1777344
vt 1.460938 0.3261719
vt 1.152344 -0.1699219
vt 1.580078 -0.3105469
f 121/121/121 122/122/122 123/123/123
f 122/122/122 124/124/124 123/123/123
f 123/123/123 124/124/124 125/125/125
f 124/124/124 126/126/126 125/125/125
f 125/125/125 126/126/126 127/127/127
v -0.1242676 2.950684 0.8947754
v 0.6975098 3.189209 1.243408
v 0.1010742 3.749268 0.9746094
v 1.010742 3.998291 1.510498
v 0.8601074 4.605713 1.169922
v 1.604004 3.662109 -0.1074219
v 1.126465 4.677002 0.1411133
vn 0.05859375 -0.609375 0.7910156
vn 0.07617188 -0.515625 0.8535156
vn 0.1269531 0.1855469 0.9746094
vn 0.4746094 -0.00390625 0.8808594
vn 0.08789063 0.7519531 0.6542969
vn 0.953125 0.2988281 0.0625
vn 0.6796875 0.6835938 -0.2617188
vt -0.359375 -2.349609
vt 0.7304688 -2.533203
vt -0.08984375 -1.605469
vt 0.7265625 -2.078125
vt 0.6289063 -1.400391
vt 1.408203 -0.7363281
vt 0.90625 -0.5019531
f 128/128/128 129/129/129 130/130/130
f 129/129/129 131/131/131 130/130/130
f 130/130/130 131/131/131 132/132/132
f 131/131/131 133/133/133 132/132/132
f 132/132/132 133/133/133 134/134/134
v -0.8974609 2.498535 0.5554199
v -0.4487305 2.576172 0.3754883
v -0.5986328 3.132568 1.334717
v -0.1242676 2.950684 0.8947754
v 0.1010742 3.749268 0.9746094
vn -0.1660156 -0.8925781 0.4179688
vn 0.1445313 -0.8203125 0.5527344
vn 0.2421875 -0.6816406 0.6914063
vn 0.05859375 -0.609375 0.7910156
vn 0.1269531 0.1855469 0.9746094
vt -1.796875 -2.648438
vt -1.392578 -2.791016
vt -1.296875 -2.203125
vt -0.6933594 -2.263672
vt 0.2617188 -1.460938
f 135/135/135 136/136/136 137/137/137
f 136/136/136 138/138/138 137/137/137
f 137/137/137 138/138/138 139/139/139
v -0.1408691 4.385986 0.04272461
v -0.657959 4.491699 1.470459
v 0.1010742 3.749268 0.9746094
v -0.5500488 3.743408 1.831055
v -0.5986328 3.132568 1.334717
vn -0.04101563 0.9589844 0.2792969
vn 0.2089844 0.6699219 0.7128906
vn 0.1269531 0.1855469 0.9746094
vn -0.02148438 -0.1542969 0.9882813
vn 0.2421875 -0.6816406 0.6914063
vt 0.5253906 -0.4609375
vt -0.3378906 -1.140625
vt 0.2617188 -1.460938
vt -0.9570313 -1.759766
vt -1.296875 -2.203125
f 140/140/140 141/141/141 142/142/142
f 141/141/141 143/143/143 142/142/142
f 142/142/142 143/143/143 144/144/144
v -0.4487305 2.576172 0.3754883
v 0.4399414 2.447266 0.3054199
v -0.1242676 2.950684 0.8947754
v 0.6975098 3.189209 1.243408
vn 0.1445313 -0.8203125 0.5527344
vn 0.1386719 -0.8007813 0.5839844
vn 0.05859375 -0.609375 0.7910156
vn 0.07617188 -0.515625 0.8535156
vt 1.908203 -3.945313
vt 1.923828 -2.773438
vt 1.037109 -3.134766
vt 0.9667969 -2.357422
f 145/145/145 146/146/146 147/147/147
f 146/146/146 148/148/148 147/147/147
v -1.648438 2.980469 0.8305664
v -1.972656 3.795654 0.6706543
v -1.241211 2.84375 -0.505127
v -1.518311 3.720459 -0.407959
vn -0.6230469 -0.6367188 0.453125
vn -0.953125 -0.04492188 0.3007813
vn -0.8242188 -0.5136719 -0.2382813
vn -0.8945313 0.2851563 -0.3417969
vt -1.394531 0.3535156
vt -1 0.1640625
vt -0.375 1.011719
vt -0.09960938 0.5957031
f 149/149/149 150/150/150 151/151/151
f 150/150/150 152/152/152 151/151/151
v -1.017578 4.569824 -0.177002
v -1.518311 3.720459 -0.407959
v -1.770996 4.653076 0.7927246
v -1.972656 3.795654 0.6706543
vn -0.4335938 0.8867188 -0.15625
vn -0.8945313 0.2851563 -0.3417969
vn -0.6972656 0.7167969 0.01757813
vn -0.953125 -0.04492188 0.3007813
vt 0.1757813 0.1445313
vt -0.09960938 0.5957031
vt -0.6875 -0.2089844
vt -1 0.1640625
f 153/153/153 154/154/154 155/155/155
f 154/154/154 156/156/156 155/155/155
v 0.6975098 3.189209 1.243408
v 1.452637 2.976563 0.03466797
v 1.010742 3.998291 1.510498
v 1.604004 3.662109 -0.1074219
vn 0.07617188 -0.515625 0.8535156
vn 0.7519531 -0.4628906 0.46875
vn 0.4746094 -0.00390625 0.8808594
vn 0.953125 0.2988281 0.0625
vt 0.7304688 -2.533203
vt 1.6875 -1.523438
vt 0.7265625 -2.078125
vt 1.408203 -0.7363281
f 157/157/157 158/158/158 159/159/159
f 158/158/158 160/160/160 159/159/159
v 0.1716309 4.578125 -0.5874023
v -0.4145508 4.998291 -0.8405762
v -0.1408691 4.385986 0.04272461
v -1.017578 4.569824 -0.177002
vn 0.3789063 0.9121094 -0.1601563
vn 0.09570313 0.9941406 -0.03515625
vn -0.04101563 0.9589844 0.2792969
vn -0.4335938 0.8867188 -0.15625
vt 1.152344 -0.1699219
vt 0.7792969 0.1777344
vt 0.65625 -0.4980469
vt 0.1621094 0.1308594
f 161/161/161 162/162/162 163/163/163
f 162/162/162 164/164/164 163/163/163
v -0.1408691 4.385986 0.04272461
v 0.4755859 4.71582 -0.4914551
v 0.1716309 4.578125 -0.5874023
v 0.6940918 3.955811 -0.7541504
vn -0.04101563 0.9589844 0.2792969
vn 0.02148438 0.859375 -0.5117188
vn 0.3789063 0.9121094 -0.1601563
vn 0.5859375 0.5097656 -0.6308594
vt -0.1289063 -0.4394531
vt 0.3515625 -0.06640625
vt 0.1152344 0.001953125
vt 0.5214844 0.1191406
f 165/165/165 166/166/166 167/167/167
f 166/166/166 168/168/168 167/167/167
v -1.648438 2.980469 0.8305664
v -1.241211 2.84375 -0.505127
v -0.8974609 2.498535 0.5554199
v 1.452637 2.976563 0.03466797
v 0.6975098 3.189209 1.243408
v 0.4399414 2.447266 0.3054199
v -0.8522949 4.902588 0.6196289
v -0.657959 4.491699 1.470459
v -0.1408691 4.385986 0.04272461
v 1.126465 4.677002 0.1411133
v 0.5163574 4.967773 0.359375
v 0.8601074 4.605713 1.169922
vn -0.6230469 -0.6367188 0.453125
vn -0.8242188 -0.5136719 -0.2382813
vn -0.1660156 -0.8925781 0.4179688
vn 0.7519531 -0.4628906 0.46875
vn 0.07617188 -0.515625 0.8535156
vn 0.1386719 -0.8007813 0.5839844
vn 0.1484375 0.9882813 -0.02539063
vn 0.2089844 0.6699219 0.7128906
vn -0.04101563 0.9589844 0.2792969
vn 0.6796875 0.6835938 -0.2617188
vn -0.15625 0.984375 0.0703125
vn 0.08789063 0.7519531 0.6542969
vt -1.796875 -2.648438
vt -2.400391 -1.658203
vt -1.703125 -1.111328
vt 1.625 -1.570313
vt 0.9667969 -2.357422
vt 1.923828 -2.773438
vt -0.06835938 -0.4570313
vt -0.3378906 -1.140625
vt 0.5253906 -0.4609375
vt 0.90625 -0.5019531
vt 0.375 -0.6621094
vt 0.6289063 -1.400391
f 169/169/169 170/170/170 171/171/171
f 172/172/172 173/173/173 174/174/174
f 175/175/175 176/176/176 177/177/177
f 178/178/178 179/179/179 180/180/180
